<svg width="194" height="234" viewBox="0 0 194 234" fill="none" xmlns="http://www.w3.org/2000/svg">
<path d="M65 7.5H175C181.351 7.5 186.5 12.6487 186.5 19V170C186.5 201.204 161.204 226.5 130 226.5H32C18.469 226.5 7.5 215.531 7.5 202V65C7.5 33.2436 33.2436 7.5 65 7.5Z" stroke="#D99873" stroke-width="15"/>
<path d="M35.5 198.934C149.775 198.934 182.473 212.481 186.5 143" stroke="#D99873" stroke-width="15" stroke-linecap="round"/>
<path d="M97.0007 62.7579C97.0075 60.458 96.5543 58.1801 95.6678 56.058C94.7814 53.9358 93.4795 52.0124 91.8388 50.4008C90.1981 48.7892 88.2517 47.5219 86.114 46.6736C83.9764 45.8252 81.6907 45.4129 79.3913 45.4608C77.092 45.5087 74.8255 46.0159 72.725 46.9526C70.6246 47.8893 68.7327 49.2366 67.1605 50.9152C65.5884 52.5938 64.3678 54.5698 63.5705 56.727C62.7732 58.8842 62.4154 61.1791 62.518 63.4766C59.1381 64.3456 56.0004 65.9724 53.3423 68.2337C50.6843 70.4949 48.5756 73.3314 47.1761 76.5282C45.7766 79.7251 45.1229 83.1985 45.2645 86.6854C45.4061 90.1723 46.3393 93.5813 47.9935 96.6541C45.085 99.017 42.7979 102.055 41.3312 105.503C39.8644 108.951 39.2624 112.706 39.5776 116.44C39.8927 120.174 41.1154 123.774 43.1394 126.928C45.1633 130.082 47.9272 132.693 51.1905 134.535C50.7875 137.653 51.028 140.82 51.8971 143.842C52.7662 146.863 54.2454 149.674 56.2435 152.101C58.2416 154.528 60.716 156.52 63.514 157.953C66.312 159.387 69.3742 160.231 72.5113 160.435C75.6485 160.639 78.7942 160.197 81.754 159.137C84.7137 158.077 87.4249 156.422 89.7199 154.273C92.0148 152.125 93.845 149.529 95.0973 146.645C96.3496 143.761 96.9974 140.652 97.0007 137.508V62.7579Z" stroke="#D99873" stroke-width="11.5" stroke-linecap="round" stroke-linejoin="round"/>
<path d="M97.0001 62.7579C96.9933 60.458 97.4465 58.1801 98.333 56.058C99.2194 53.9358 100.521 52.0124 102.162 50.4008C103.803 48.7892 105.749 47.5219 107.887 46.6736C110.024 45.8252 112.31 45.4129 114.609 45.4608C116.909 45.5087 119.175 46.0159 121.276 46.9526C123.376 47.8893 125.268 49.2366 126.84 50.9152C128.412 52.5938 129.633 54.5698 130.43 56.727C131.228 58.8842 131.585 61.1791 131.483 63.4766C134.863 64.3456 138 65.9724 140.658 68.2337C143.317 70.4949 145.425 73.3314 146.825 76.5282C148.224 79.7251 148.878 83.1985 148.736 86.6854C148.595 90.1723 147.661 93.5813 146.007 96.6541C148.916 99.017 151.203 102.055 152.67 105.503C154.136 108.951 154.738 112.706 154.423 116.44C154.108 120.174 152.885 123.774 150.861 126.928C148.838 130.082 146.074 132.693 142.81 134.535C143.213 137.653 142.973 140.82 142.104 143.842C141.235 146.863 139.755 149.674 137.757 152.101C135.759 154.528 133.285 156.52 130.487 157.953C127.689 159.387 124.627 160.231 121.489 160.435C118.352 160.639 115.207 160.197 112.247 159.137C109.287 158.077 106.576 156.422 104.281 154.273C101.986 152.125 100.156 149.529 98.9035 146.645C97.6513 143.761 97.0034 140.652 97.0001 137.508V62.7579Z" stroke="#D99873" stroke-width="11.5" stroke-linecap="round" stroke-linejoin="round"/>
<path d="M114.25 108.75C109.423 107.052 105.207 103.96 102.137 99.8663C99.0662 95.7723 97.2786 90.8598 97 85.75C96.7214 90.8598 94.9338 95.7723 91.8634 99.8663C88.7929 103.96 84.5774 107.052 79.75 108.75" stroke="#D99873" stroke-width="11.5" stroke-linecap="round" stroke-linejoin="round"/>
<path d="M129.193 71.375C130.585 68.9634 131.372 66.2507 131.488 63.4688" stroke="#D99873" stroke-width="11.5" stroke-linecap="round" stroke-linejoin="round"/>
<path d="M62.5186 63.4688C62.6323 66.2502 63.4174 68.9628 64.8071 71.375" stroke="#D99873" stroke-width="11.5" stroke-linecap="round" stroke-linejoin="round"/>
<path d="M47.9941 96.652C49.046 95.7953 50.1717 95.0333 51.3579 94.375" stroke="#D99873" stroke-width="11.5" stroke-linecap="round" stroke-linejoin="round"/>
<path d="M142.645 94.375C143.831 95.0333 144.956 95.7953 146.008 96.652" stroke="#D99873" stroke-width="11.5" stroke-linecap="round" stroke-linejoin="round"/>
<path d="M62.5017 137.502C58.5389 137.504 54.6429 136.482 51.1914 134.535" stroke="#D99873" stroke-width="11.5" stroke-linecap="round" stroke-linejoin="round"/>
<path d="M142.81 134.535C139.359 136.482 135.463 137.504 131.5 137.502" stroke="#D99873" stroke-width="11.5" stroke-linecap="round" stroke-linejoin="round"/>
</svg>
